<svg width="106" height="39" viewBox="0 0 106 39" fill="none" xmlns="http://www.w3.org/2000/svg">
<path d="M2.56432 12.6437C3.82401 12.6437 4.84519 11.6062 4.84519 10.3264C4.84519 9.04654 3.82401 8.00903 2.56432 8.00903C1.30463 8.00903 0.283447 9.04654 0.283447 10.3264C0.283447 11.6062 1.30463 12.6437 2.56432 12.6437Z" fill="#464646"/>
<path d="M2.56432 19.1322C3.82401 19.1322 4.84519 18.0947 4.84519 16.8149C4.84519 15.5351 3.82401 14.4976 2.56432 14.4976C1.30463 14.4976 0.283447 15.5351 0.283447 16.8149C0.283447 18.0947 1.30463 19.1322 2.56432 19.1322Z" fill="#464646"/>
<path opacity="0.2" d="M8.95079 12.6437C10.2105 12.6437 11.2317 11.6062 11.2317 10.3264C11.2317 9.04654 10.2105 8.00903 8.95079 8.00903C7.6911 8.00903 6.66992 9.04654 6.66992 10.3264C6.66992 11.6062 7.6911 12.6437 8.95079 12.6437Z" fill="#464646"/>
<path d="M8.95079 19.1952C10.2105 19.1952 11.2317 18.1577 11.2317 16.8779C11.2317 15.5981 10.2105 14.5605 8.95079 14.5605C7.6911 14.5605 6.66992 15.5981 6.66992 16.8779C6.66992 18.1577 7.6911 19.1952 8.95079 19.1952Z" fill="#464646"/>
<path opacity="0.2" d="M15.337 12.6437C16.5967 12.6437 17.6179 11.6062 17.6179 10.3264C17.6179 9.04654 16.5967 8.00903 15.337 8.00903C14.0773 8.00903 13.0562 9.04654 13.0562 10.3264C13.0562 11.6062 14.0773 12.6437 15.337 12.6437Z" fill="#464646"/>
<path opacity="0.2" d="M15.337 5.22816C16.5967 5.22816 17.6179 4.19066 17.6179 2.91083C17.6179 1.63101 16.5967 0.593506 15.337 0.593506C14.0773 0.593506 13.0562 1.63101 13.0562 2.91083C13.0562 4.19066 14.0773 5.22816 15.337 5.22816Z" fill="#464646"/>
<path opacity="0.2" d="M15.337 19.1952C16.5967 19.1952 17.6179 18.1577 17.6179 16.8779C17.6179 15.5981 16.5967 14.5605 15.337 14.5605C14.0773 14.5605 13.0562 15.5981 13.0562 16.8779C13.0562 18.1577 14.0773 19.1952 15.337 19.1952Z" fill="#464646"/>
<path opacity="0.2" d="M21.7235 12.6437C22.9832 12.6437 24.0044 11.6062 24.0044 10.3264C24.0044 9.04654 22.9832 8.00903 21.7235 8.00903C20.4638 8.00903 19.4426 9.04654 19.4426 10.3264C19.4426 11.6062 20.4638 12.6437 21.7235 12.6437Z" fill="#464646"/>
<path d="M28.11 12.6437C29.3697 12.6437 30.3908 11.6062 30.3908 10.3264C30.3908 9.04654 29.3697 8.00903 28.11 8.00903C26.8503 8.00903 25.8291 9.04654 25.8291 10.3264C25.8291 11.6062 26.8503 12.6437 28.11 12.6437Z" fill="#464646"/>
<path d="M21.7235 19.1952C22.9832 19.1952 24.0044 18.1577 24.0044 16.8779C24.0044 15.5981 22.9832 14.5605 21.7235 14.5605C20.4638 14.5605 19.4426 15.5981 19.4426 16.8779C19.4426 18.1577 20.4638 19.1952 21.7235 19.1952Z" fill="#464646"/>
<path d="M28.11 19.1952C29.3697 19.1952 30.3908 18.1577 30.3908 16.8779C30.3908 15.5981 29.3697 14.5605 28.11 14.5605C26.8503 14.5605 25.8291 15.5981 25.8291 16.8779C25.8291 18.1577 26.8503 19.1952 28.11 19.1952Z" fill="#464646"/>
<path d="M2.56432 25.6207C3.82401 25.6207 4.84519 24.5832 4.84519 23.3034C4.84519 22.0236 3.82401 20.9861 2.56432 20.9861C1.30463 20.9861 0.283447 22.0236 0.283447 23.3034C0.283447 24.5832 1.30463 25.6207 2.56432 25.6207Z" fill="#464646"/>
<path opacity="0.2" d="M8.95079 25.6837C10.2105 25.6837 11.2317 24.6462 11.2317 23.3664C11.2317 22.0866 10.2105 21.0491 8.95079 21.0491C7.6911 21.0491 6.66992 22.0866 6.66992 23.3664C6.66992 24.6462 7.6911 25.6837 8.95079 25.6837Z" fill="#464646"/>
<path d="M15.337 25.6837C16.5967 25.6837 17.6179 24.6462 17.6179 23.3664C17.6179 22.0866 16.5967 21.0491 15.337 21.0491C14.0773 21.0491 13.0562 22.0866 13.0562 23.3664C13.0562 24.6462 14.0773 25.6837 15.337 25.6837Z" fill="#464646"/>
<path opacity="0.2" d="M21.7235 25.6837C22.9832 25.6837 24.0044 24.6462 24.0044 23.3664C24.0044 22.0866 22.9832 21.0491 21.7235 21.0491C20.4638 21.0491 19.4426 22.0866 19.4426 23.3664C19.4426 24.6462 20.4638 25.6837 21.7235 25.6837Z" fill="#464646"/>
<path d="M28.11 25.6837C29.3697 25.6837 30.3908 24.6462 30.3908 23.3664C30.3908 22.0866 29.3697 21.0491 28.11 21.0491C26.8503 21.0491 25.8291 22.0866 25.8291 23.3664C25.8291 24.6462 26.8503 25.6837 28.11 25.6837Z" fill="#464646"/>
<path d="M2.56432 32.109C3.82401 32.109 4.84519 31.0715 4.84519 29.7917C4.84519 28.5119 3.82401 27.4744 2.56432 27.4744C1.30463 27.4744 0.283447 28.5119 0.283447 29.7917C0.283447 31.0715 1.30463 32.109 2.56432 32.109Z" fill="#464646"/>
<path opacity="0.2" d="M8.95079 32.1723C10.2105 32.1723 11.2317 31.1348 11.2317 29.8549C11.2317 28.5751 10.2105 27.5376 8.95079 27.5376C7.6911 27.5376 6.66992 28.5751 6.66992 29.8549C6.66992 31.1348 7.6911 32.1723 8.95079 32.1723Z" fill="#464646"/>
<path opacity="0.2" d="M15.337 32.1723C16.5967 32.1723 17.6179 31.1348 17.6179 29.8549C17.6179 28.5751 16.5967 27.5376 15.337 27.5376C14.0773 27.5376 13.0562 28.5751 13.0562 29.8549C13.0562 31.1348 14.0773 32.1723 15.337 32.1723Z" fill="#464646"/>
<path opacity="0.2" d="M15.337 38.6605C16.5967 38.6605 17.6179 37.623 17.6179 36.3432C17.6179 35.0634 16.5967 34.0259 15.337 34.0259C14.0773 34.0259 13.0562 35.0634 13.0562 36.3432C13.0562 37.623 14.0773 38.6605 15.337 38.6605Z" fill="#464646"/>
<path opacity="0.2" d="M21.7235 32.1723C22.9832 32.1723 24.0044 31.1348 24.0044 29.8549C24.0044 28.5751 22.9832 27.5376 21.7235 27.5376C20.4638 27.5376 19.4426 28.5751 19.4426 29.8549C19.4426 31.1348 20.4638 32.1723 21.7235 32.1723Z" fill="#464646"/>
<path d="M28.11 32.1723C29.3697 32.1723 30.3908 31.1348 30.3908 29.8549C30.3908 28.5751 29.3697 27.5376 28.11 27.5376C26.8503 27.5376 25.8291 28.5751 25.8291 29.8549C25.8291 31.1348 26.8503 32.1723 28.11 32.1723Z" fill="#464646"/>
<path d="M42.7619 21.2312L42.9899 21.7842L43.2219 21.2192L43.4759 20.6862L46.8839 14.3082C46.9192 14.2389 46.9636 14.1747 47.0159 14.1172C47.0609 14.0702 47.1119 14.0372 47.1659 14.0132C47.2199 13.9892 47.2839 13.9782 47.3529 13.9732C47.4347 13.967 47.5168 13.9644 47.5989 13.9652H49.2149V25.4772H47.3279V18.0422L47.3399 17.5892L47.3769 17.0872L43.8969 23.6172C43.8169 23.7652 43.7139 23.8812 43.5969 23.9632C43.4799 24.0452 43.3199 24.0872 43.1519 24.0872H42.8569C42.6994 24.0918 42.5443 24.0485 42.4119 23.9632C42.281 23.876 42.1743 23.7569 42.1019 23.6172L38.5739 17.0642L38.6189 17.5782L38.6309 18.0442V25.4792H36.7439V13.9652H38.3599L38.6059 13.9732C38.6699 13.9776 38.7329 13.9914 38.7929 14.0142C38.8519 14.0365 38.9049 14.0721 38.9479 14.1182C39.0016 14.1751 39.0473 14.2391 39.0839 14.3082L42.5239 20.7002L42.7719 21.2302L42.7619 21.2312ZM54.8039 17.1812C55.2883 17.175 55.7698 17.2584 56.2239 17.4272C56.6559 17.5932 57.0289 17.8322 57.3419 18.1472C57.6653 18.4788 57.9148 18.8752 58.0739 19.3102C58.2489 19.7702 58.3359 20.2942 58.3359 20.8822C58.3378 21.0059 58.3311 21.1295 58.3159 21.2522C58.3073 21.3333 58.2836 21.412 58.2459 21.4842C58.2129 21.5412 58.1659 21.5802 58.1059 21.6042C58.0459 21.6282 57.9739 21.6412 57.8819 21.6412H52.8339C52.8939 22.4812 53.1189 23.0952 53.5109 23.4872C53.9029 23.8792 54.4239 24.0872 55.0709 24.0872C55.3909 24.0872 55.6649 24.0502 55.8939 23.9752C56.1229 23.9002 56.3269 23.8182 56.4999 23.7292L56.9529 23.4832C57.0829 23.4082 57.2089 23.3712 57.3309 23.3712C57.4109 23.3712 57.4789 23.3872 57.5379 23.4182C57.5969 23.4492 57.6379 23.4952 57.6879 23.5542L58.2609 24.2702C58.0498 24.5185 57.8032 24.7342 57.5289 24.9102C57.2632 25.0808 56.9786 25.2201 56.6809 25.3252C56.3893 25.4283 56.0881 25.502 55.7819 25.5452C55.4874 25.5868 55.1903 25.6079 54.8929 25.6082C54.3259 25.6082 53.7969 25.5142 53.3089 25.3252C52.8288 25.1413 52.3939 24.8562 52.0339 24.4892C51.6719 24.1212 51.3889 23.6642 51.1819 23.1212C50.9749 22.5782 50.8819 21.9462 50.8819 21.2212C50.8819 20.6642 50.9819 20.1392 51.1519 19.6492C51.3226 19.1745 51.5868 18.7389 51.9289 18.3682C52.2761 17.998 52.6962 17.7038 53.1629 17.5042C53.6509 17.2912 54.1999 17.1842 54.8099 17.1842L54.8039 17.1812ZM54.8439 18.5812C54.2709 18.5812 53.8209 18.7442 53.4979 19.0672C53.1749 19.3902 52.9679 19.8502 52.8779 20.4432H56.5719C56.5719 20.1892 56.5369 19.9492 56.4679 19.7232C56.4033 19.5055 56.2947 19.3033 56.1489 19.1292C56.0069 18.9592 55.8259 18.8262 55.6089 18.7262C55.3919 18.6262 55.1349 18.5802 54.8449 18.5802L54.8439 18.5812ZM62.6219 25.6052C61.9159 25.6052 61.3719 25.4052 60.9889 25.0032C60.6059 24.6012 60.4159 24.0492 60.4159 23.3432V18.7812H59.5879C59.4819 18.7812 59.3909 18.7462 59.3139 18.6772C59.2369 18.6082 59.1979 18.5042 59.1979 18.3772V17.5972L60.5109 17.3812L60.9259 15.1532C60.9459 15.0472 60.9959 14.9532 61.0719 14.9072C61.1479 14.8612 61.2449 14.8202 61.3719 14.8202H62.3919V17.3922H64.5419V18.7922H62.3919V23.2182C62.3919 23.4722 62.4549 23.6712 62.5919 23.8162C62.6547 23.8862 62.7319 23.9418 62.8182 23.9791C62.9045 24.0164 62.9979 24.0345 63.0919 24.0322C63.2139 24.0322 63.3159 24.0182 63.3989 23.9872C63.4731 23.9623 63.5453 23.9319 63.6149 23.8962L63.7779 23.7962C63.8249 23.7682 63.8739 23.7512 63.9219 23.7512C63.9819 23.7512 64.0279 23.7652 64.0639 23.7962C64.1092 23.8351 64.1495 23.8794 64.1839 23.9282L64.7839 24.8842C64.4918 25.1255 64.1565 25.3091 63.7959 25.4252C63.4231 25.5474 63.0332 25.6092 62.6409 25.6082L62.6219 25.6052ZM72.5019 25.4792H71.6179C71.4329 25.4792 71.2879 25.4512 71.1809 25.3962C71.0739 25.3412 70.9959 25.2262 70.9429 25.0582L70.7679 24.4782C70.5741 24.653 70.3704 24.8166 70.1579 24.9682C69.9579 25.1082 69.7529 25.2262 69.5419 25.3222C69.3251 25.4195 69.098 25.492 68.8649 25.5382C68.6023 25.5887 68.3353 25.6121 68.0679 25.6082C67.7439 25.6115 67.4214 25.5642 67.1119 25.4682C66.8344 25.3828 66.5782 25.2396 66.3599 25.0482C66.1499 24.851 65.9801 24.615 65.8599 24.3532C65.7319 24.0782 65.6849 23.7532 65.6849 23.3872C65.6849 23.0872 65.7649 22.7732 65.9269 22.4722C66.0889 22.1712 66.3569 21.9022 66.7339 21.6572C67.1109 21.4122 67.6119 21.2142 68.2389 21.0532C68.8659 20.8922 69.6419 20.8132 70.5709 20.8132V20.3312C70.5709 19.7812 70.4549 19.3712 70.2249 19.1072C69.9949 18.8432 69.6579 18.7112 69.2189 18.7112C68.8989 18.7112 68.6349 18.7482 68.4219 18.8232C68.2304 18.8896 68.0453 18.9733 67.8689 19.0732L67.4359 19.3232C67.3026 19.3983 67.1519 19.437 66.9989 19.4352C66.8767 19.4381 66.7568 19.4017 66.6569 19.3312C66.5629 19.2635 66.4839 19.177 66.4249 19.0772L66.0669 18.4492C67.0069 17.5892 68.1389 17.1492 69.4669 17.1492C69.9449 17.1492 70.3699 17.2292 70.7439 17.3852C71.1043 17.5323 71.4289 17.7549 71.6959 18.0382C71.9612 18.3259 72.1636 18.6658 72.2899 19.0362C72.4294 19.4466 72.4981 19.8778 72.4929 20.3112L72.5019 25.4792ZM68.6799 24.2532C68.867 24.2547 69.0537 24.2362 69.2369 24.1982C69.4036 24.1626 69.5654 24.1072 69.7189 24.0332C69.8733 23.9582 70.0197 23.8678 70.1559 23.7632C70.3065 23.647 70.4486 23.52 70.5809 23.3832V22.0272C70.0079 22.0272 69.5279 22.0642 69.1439 22.1352C68.7599 22.2062 68.4509 22.3002 68.2169 22.4122C67.9829 22.5242 67.8169 22.6562 67.7189 22.8042C67.6228 22.9495 67.572 23.12 67.5729 23.2942C67.5729 23.6422 67.6749 23.8902 67.8799 24.0402C68.0849 24.1902 68.3519 24.2642 68.6799 24.2642V24.2532ZM74.4599 25.4792V13.6472H76.4259V18.3132C76.7489 17.9672 77.1259 17.6932 77.5239 17.4902C77.9219 17.2872 78.4099 17.1832 78.9569 17.1832C79.38 17.1779 79.7985 17.2717 80.1789 17.4572C80.5469 17.6402 80.8659 17.9072 81.1349 18.2572C81.4039 18.6072 81.6109 19.0402 81.7549 19.5542C81.8989 20.0682 81.9749 20.6602 81.9749 21.3292C81.9749 21.9292 81.8949 22.5042 81.7289 23.0252C81.58 23.5166 81.3405 23.9758 81.0229 24.3792C80.7179 24.7612 80.3479 25.0592 79.9169 25.2762C79.4859 25.4932 78.9999 25.5992 78.4629 25.5992C78.2129 25.5992 77.9849 25.5752 77.7779 25.5242C77.5709 25.4732 77.3839 25.4042 77.2129 25.3242C77.0422 25.2337 76.883 25.1229 76.7389 24.9942C76.5891 24.86 76.4491 24.7153 76.3199 24.5612L76.2329 25.1112C76.1999 25.2492 76.1479 25.3472 76.0699 25.4062C75.9919 25.4652 75.8899 25.4932 75.7549 25.4932H74.4599V25.4792ZM78.2819 18.7112C77.8819 18.7112 77.5239 18.7962 77.2349 18.9692C76.9238 19.1607 76.6503 19.4074 76.4279 19.6972V23.3592C76.6519 23.6362 76.8939 23.8272 77.1559 23.9362C77.4179 24.0452 77.7059 24.0992 78.0119 24.0992C78.2893 24.1036 78.5642 24.0466 78.8169 23.9322C79.0565 23.8199 79.2632 23.6477 79.4169 23.4322C79.5973 23.1703 79.7282 22.8774 79.8029 22.5682C79.9029 22.2202 79.9389 21.8102 79.9389 21.3382C79.9389 20.8602 79.8989 20.4562 79.8229 20.1242C79.7469 19.7922 79.6359 19.5222 79.4929 19.3172C79.3635 19.1222 79.1839 18.9656 78.9729 18.8642C78.7659 18.7702 78.5329 18.7222 78.2729 18.7222L78.2819 18.7112ZM89.9149 25.4792H89.0309C88.8459 25.4792 88.7009 25.4512 88.5939 25.3962C88.4869 25.3412 88.4089 25.2262 88.3559 25.0582L88.1809 24.4782C87.9871 24.653 87.7834 24.8166 87.5709 24.9682C87.3768 25.1059 87.1698 25.2244 86.9529 25.3222C86.7359 25.419 86.5089 25.4915 86.2759 25.5382C86.0379 25.5882 85.7719 25.6082 85.4789 25.6082C85.1549 25.6115 84.8324 25.5642 84.5229 25.4682C84.2454 25.3828 83.9892 25.2396 83.7709 25.0482C83.5609 24.851 83.3911 24.615 83.2709 24.3532C83.1429 24.0782 83.0959 23.7532 83.0959 23.3872C83.0959 23.0872 83.1759 22.7732 83.3379 22.4722C83.4999 22.1712 83.7679 21.9022 84.1449 21.6572C84.5219 21.4122 85.0229 21.2142 85.6499 21.0532C86.2769 20.8922 87.0549 20.8132 87.9819 20.8132V20.3312C87.9819 19.7812 87.8659 19.3712 87.6359 19.1072C87.4059 18.8432 87.0689 18.7112 86.6299 18.7112C86.3099 18.7112 86.0459 18.7482 85.8329 18.8232C85.6414 18.8896 85.4563 18.9733 85.2799 19.0732L84.8469 19.3232C84.7133 19.3975 84.5628 19.436 84.4099 19.4352C84.2877 19.4381 84.1678 19.4017 84.0679 19.3312C83.9739 19.2635 83.8949 19.177 83.8359 19.0772L83.4779 18.4492C84.4179 17.5892 85.5499 17.1492 86.8779 17.1492C87.3559 17.1492 87.7829 17.2292 88.1579 17.3852C88.5183 17.5323 88.8429 17.7549 89.1099 18.0382C89.3752 18.3259 89.5776 18.6658 89.7039 19.0362C89.8434 19.4466 89.9121 19.8778 89.9069 20.3112L89.9149 25.4792ZM86.0929 24.2532C86.28 24.2547 86.4667 24.2362 86.6499 24.1982C86.8166 24.1626 86.9784 24.1072 87.1319 24.0332C87.2863 23.9582 87.4327 23.8678 87.5689 23.7632C87.7195 23.647 87.8616 23.52 87.9939 23.3832V22.0272C87.4209 22.0272 86.9409 22.0642 86.5569 22.1352C86.1729 22.2062 85.8639 22.3002 85.6299 22.4122C85.3959 22.5242 85.2299 22.6562 85.1319 22.8042C85.0358 22.9495 84.985 23.12 84.9859 23.2942C84.9859 23.6422 85.0879 23.8902 85.2929 24.0402C85.4979 24.1902 85.7649 24.2642 86.0929 24.2642V24.2532ZM96.6979 18.9012C96.657 18.9731 96.5998 19.0344 96.5309 19.0802C96.4709 19.1152 96.3989 19.1302 96.3069 19.1302C96.1999 19.1274 96.095 19.1003 95.9999 19.0512L95.6219 18.8712C95.4799 18.8042 95.3149 18.7452 95.1219 18.6912C94.9289 18.6372 94.7219 18.6112 94.4719 18.6112C94.0839 18.6112 93.7789 18.6942 93.5569 18.8572C93.3349 19.0202 93.2239 19.2372 93.2239 19.5022C93.2216 19.5832 93.2355 19.6638 93.2646 19.7393C93.2938 19.8149 93.3378 19.8838 93.3939 19.9422C93.5069 20.0592 93.6579 20.1662 93.8469 20.2572C94.0538 20.354 94.2677 20.4349 94.4869 20.4992L95.2189 20.7332L95.9509 21.0332C96.1889 21.1332 96.4009 21.2792 96.5909 21.4482C96.7806 21.6166 96.9346 21.8213 97.0439 22.0502C97.1569 22.2842 97.2139 22.5642 97.2139 22.8942C97.2139 23.2862 97.1439 23.6482 96.9979 23.9822C96.8519 24.3162 96.6439 24.6002 96.3699 24.8422C96.0697 25.0964 95.722 25.2885 95.3469 25.4072C94.9419 25.5432 94.4749 25.6102 93.9499 25.6102C93.6738 25.6111 93.3983 25.586 93.1269 25.5352C92.8589 25.4852 92.6019 25.4152 92.3539 25.3352C92.1059 25.2552 91.8779 25.1382 91.6689 25.0152C91.4599 24.8922 91.2749 24.7612 91.1159 24.6152L91.5689 23.8672C91.6218 23.7838 91.6925 23.7131 91.7759 23.6602C91.8683 23.6087 91.9733 23.5845 92.0789 23.5902C92.2019 23.5904 92.3222 23.6265 92.4249 23.6942L92.8029 23.9182C92.9638 24.0092 93.1333 24.0843 93.3089 24.1422C93.5468 24.2174 93.7955 24.2526 94.0449 24.2462C94.2789 24.2462 94.4779 24.2182 94.6469 24.1632C94.8159 24.1082 94.9519 24.0352 95.0619 23.9432C95.1719 23.8512 95.2619 23.7482 95.2999 23.6282C95.3438 23.5095 95.3691 23.3847 95.3749 23.2582C95.3818 23.0852 95.3204 22.9164 95.2039 22.7882C95.0899 22.6662 94.9379 22.5602 94.7509 22.4682C94.5425 22.3709 94.3269 22.29 94.1059 22.2262L93.3659 21.9902C93.1135 21.9049 92.8664 21.8048 92.6259 21.6902C92.3896 21.5805 92.1719 21.4344 91.9809 21.2572C91.7876 21.0753 91.6334 20.8558 91.5279 20.6122C91.4139 20.3582 91.3579 20.0492 91.3579 19.6892C91.3572 19.3602 91.4249 19.0346 91.5569 18.7332C91.6903 18.4283 91.8906 18.1573 92.1429 17.9402C92.4029 17.7142 92.7199 17.5332 93.1069 17.4002C93.4939 17.2672 93.9369 17.1972 94.4409 17.1972C95.0039 17.1972 95.5169 17.2912 95.9779 17.4772C96.4389 17.6632 96.8239 17.9072 97.1329 18.2092L96.6979 18.9012ZM102.184 17.1812C102.668 17.175 103.15 17.2584 103.604 17.4272C104.036 17.5932 104.409 17.8322 104.722 18.1472C105.045 18.4788 105.295 18.8752 105.454 19.3102C105.629 19.7702 105.716 20.2942 105.716 20.8822C105.718 21.0059 105.711 21.1295 105.696 21.2522C105.687 21.3333 105.664 21.412 105.626 21.4842C105.593 21.5412 105.546 21.5802 105.486 21.6042C105.426 21.6282 105.354 21.6412 105.262 21.6412H100.214C100.274 22.4812 100.499 23.0952 100.891 23.4872C101.283 23.8792 101.804 24.0872 102.451 24.0872C102.771 24.0872 103.045 24.0502 103.274 23.9752C103.503 23.9002 103.707 23.8182 103.88 23.7292L104.333 23.4832C104.463 23.4082 104.589 23.3712 104.711 23.3712C104.791 23.3712 104.859 23.3872 104.918 23.4182C104.977 23.4492 105.018 23.4952 105.068 23.5542L105.641 24.2702C105.43 24.5185 105.183 24.7342 104.909 24.9102C104.643 25.0808 104.359 25.2201 104.061 25.3252C103.769 25.4283 103.468 25.502 103.162 25.5452C102.867 25.5868 102.57 25.6079 102.273 25.6082C101.706 25.6082 101.177 25.5142 100.689 25.3252C100.209 25.1413 99.7739 24.8562 99.4139 24.4892C99.0519 24.1212 98.7689 23.6642 98.5619 23.1212C98.3549 22.5782 98.2619 21.9462 98.2619 21.2212C98.2619 20.6642 98.3619 20.1392 98.5319 19.6492C98.7026 19.1745 98.9668 18.7389 99.3089 18.3682C99.6561 17.998 100.076 17.7038 100.543 17.5042C101.043 17.2912 101.583 17.1842 102.193 17.1842L102.184 17.1812ZM102.224 18.5812C101.651 18.5812 101.201 18.7442 100.878 19.0672C100.555 19.3902 100.348 19.8502 100.258 20.4432H103.952C103.952 20.1892 103.917 19.9492 103.848 19.7232C103.783 19.5055 103.675 19.3033 103.529 19.1292C103.385 18.9592 103.206 18.8262 102.989 18.7262C102.772 18.6262 102.517 18.5802 102.225 18.5802L102.224 18.5812Z" fill="#464646"/>
</svg>
