<svg width="104" height="36" viewBox="0 0 104 36" fill="none" xmlns="http://www.w3.org/2000/svg">
<path d="M20.0405 21.7253C21.96 21.7253 23.5161 20.1692 23.5161 18.2497C23.5161 16.3302 21.96 14.7742 20.0405 14.7742C18.121 14.7742 16.5649 16.3302 16.5649 18.2497C16.5649 20.1692 18.121 21.7253 20.0405 21.7253Z" fill="#464646"/>
<path fill-rule="evenodd" clip-rule="evenodd" d="M20.0405 11.1831C24.7069 11.1831 29.0419 11.8527 32.3105 12.9779C36.2486 14.3338 38.6699 16.3888 38.6699 18.2497C38.6699 20.1888 36.1038 22.372 31.8748 23.7732C28.6775 24.8325 24.4701 25.3855 20.0405 25.3855C15.4989 25.3855 11.1983 24.8665 7.96498 23.7616C3.87427 22.3634 1.4104 20.1519 1.4104 18.2497C1.4104 16.4039 3.72227 14.3647 7.60507 13.011C10.8858 11.8672 15.3279 11.1831 20.0399 11.1831H20.0405Z" stroke="#464646" stroke-width="1.66272"/>
<path fill-rule="evenodd" clip-rule="evenodd" d="M13.8889 14.7368C16.2202 10.6944 18.9657 7.27365 21.5734 5.00432C24.7153 2.27011 27.7052 1.19932 29.3171 2.12885C30.997 3.09759 31.6063 6.41132 30.7074 10.7747C30.0284 14.0737 28.4049 17.9945 26.192 21.8318C23.9231 25.7661 21.3251 29.2323 18.7529 31.4806C15.4981 34.3258 12.3514 35.3554 10.7036 34.4051C9.10463 33.4837 8.49317 30.4617 9.26023 26.4217C9.90835 23.0083 11.5348 18.8186 13.8881 14.7367L13.8889 14.7368Z" stroke="#464646" stroke-width="1.66272"/>
<path fill-rule="evenodd" clip-rule="evenodd" d="M13.8948 21.8422C11.5569 17.8045 9.96519 13.7166 9.3008 10.3241C8.50103 6.23658 9.06649 3.11136 10.677 2.17913C12.3552 1.20755 15.5304 2.33459 18.8617 5.29257C21.3805 7.52893 23.9668 10.893 26.1862 14.7266C28.4616 18.6571 30.167 22.6391 30.8305 25.9903C31.6699 30.2312 30.9905 33.4715 29.3442 34.4245C27.7468 35.3492 24.8237 34.3702 21.7068 31.6879C19.0732 29.4218 16.2557 25.9201 13.8948 21.8422V21.8422Z" stroke="#464646" stroke-width="1.66272"/>
<path fill-rule="evenodd" clip-rule="evenodd" d="M58.62 27.1294L54.36 20.6934C56.513 20.5034 58.453 18.9434 58.453 16.0934C58.453 13.1934 56.395 11.3374 53.508 11.3374H47.168V27.1174H49.132V20.8474H52.279L56.301 27.1174L58.62 27.1294ZM53.273 19.1324H49.133V13.0994H53.273C55.143 13.0994 56.42 14.3294 56.42 16.1044C56.42 17.8794 55.142 19.1344 53.273 19.1344V19.1324ZM65.931 27.4124C67.801 27.4124 69.338 26.7974 70.474 25.6624L69.622 24.5024C68.722 25.4254 67.398 25.9454 66.097 25.9454C63.637 25.9454 62.122 24.1474 61.98 21.9954H71.23V21.5454C71.23 18.1154 69.195 15.4174 65.74 15.4174C62.475 15.4174 60.11 18.0914 60.11 21.4034C60.11 24.9764 62.547 27.4034 65.93 27.4034L65.931 27.4124ZM69.481 20.6924H61.981C62.076 18.9424 63.281 16.8824 65.719 16.8824C68.322 16.8824 69.457 18.9884 69.481 20.6924ZM83.015 27.1284V19.2734C83.015 16.5054 81.005 15.4164 78.591 15.4164C76.721 15.4164 75.255 16.0314 74.025 17.3094L74.853 18.5394C75.87 17.4514 76.983 16.9544 78.355 16.9544C80.011 16.9544 81.242 17.8294 81.242 19.3674V21.4254C80.319 20.3604 79.018 19.8634 77.456 19.8634C75.516 19.8634 73.456 21.0704 73.456 23.6254C73.456 26.1094 75.514 27.4114 77.456 27.4114C78.994 27.4114 80.296 26.8674 81.242 25.8264V27.1264L83.015 27.1284ZM78.095 26.1344C76.439 26.1344 75.279 25.0944 75.279 23.6504C75.279 22.1834 76.439 21.1424 78.095 21.1424C79.349 21.1424 80.555 21.6154 81.242 22.5624V24.7154C80.556 25.6614 79.349 26.1344 78.095 26.1344ZM91.595 27.4124C93.677 27.4124 94.907 26.5604 95.783 25.4254L94.6 24.3374C93.843 25.3544 92.873 25.8274 91.7 25.8274C89.263 25.8274 87.75 23.9344 87.75 21.4034C87.75 18.8724 89.264 17.0034 91.7 17.0034C92.883 17.0034 93.853 17.4534 94.6 18.4934L95.783 17.4054C94.908 16.2694 93.677 15.4184 91.595 15.4184C88.188 15.4184 85.893 18.0214 85.893 21.4044C85.893 24.8114 88.188 27.4044 91.595 27.4044V27.4124ZM101.155 27.4124C102.195 27.4124 102.835 27.1044 103.285 26.6794L102.765 25.3544C102.528 25.6144 102.065 25.8274 101.558 25.8274C100.778 25.8274 100.398 25.2124 100.398 24.3604V17.2624H102.718V15.7014H100.398V12.5784H98.623V15.7014H96.73V17.2634H98.623V24.7404C98.623 26.4444 99.475 27.4144 101.155 27.4144V27.4124Z" fill="#464646"/>
</svg>
