<svg width="115" height="27" viewBox="0 0 115 27" fill="none" xmlns="http://www.w3.org/2000/svg">
<path d="M56.1541 7.08881C51.589 7.08881 48.2972 10.0661 48.2972 14.5321C48.2972 18.9979 51.9984 21.9753 56.5678 21.9753C59.3257 21.9753 61.7573 20.8836 63.2623 19.0435L60.099 17.2157C59.2637 18.1296 57.9943 18.663 56.5678 18.663C54.5869 18.663 52.904 17.6292 52.2794 15.9752H63.8662C63.957 15.5121 64.011 15.0324 64.011 14.528C64.011 10.0661 60.7235 7.08881 56.1541 7.08881ZM52.2463 13.0848C52.7632 11.4349 54.1775 10.3969 56.1541 10.3969C58.1348 10.3969 59.549 11.4349 60.0619 13.0848H52.2463ZM51.3119 2.54012L39.8534 22.3888L28.3909 2.54012H32.6872L39.8495 14.9456L47.0113 2.54012H51.3119ZM15.5049 0.264648L30.7843 26.7295H0.225586L15.5049 0.264648ZM80.6341 14.5321C80.6341 17.0131 82.2551 18.6672 84.7693 18.6672C86.4731 18.6672 87.7508 17.8939 88.4082 16.6327L91.584 18.4645C90.2689 20.6562 87.8045 21.9753 84.7693 21.9753C80.1998 21.9753 76.9126 18.9979 76.9126 14.5321C76.9126 10.0661 80.204 7.08881 84.7693 7.08881C87.8045 7.08881 90.2649 8.40788 91.584 10.5995L88.4082 12.4314C87.7508 11.1702 86.4731 10.3969 84.7693 10.3969C82.2593 10.3969 80.6341 12.051 80.6341 14.5321ZM114.74 2.54012V21.5618H111.019V2.54012H114.74ZM100.681 7.08881C96.1164 7.08881 92.8246 10.0661 92.8246 14.5321C92.8246 18.9979 96.5294 21.9753 101.095 21.9753C103.852 21.9753 106.285 20.8836 107.789 19.0435L104.626 17.2157C103.791 18.1296 102.521 18.663 101.095 18.663C99.1143 18.663 97.4309 17.6292 96.8064 15.9752H108.393C108.484 15.5121 108.538 15.0324 108.538 14.528C108.538 10.0661 105.25 7.08881 100.681 7.08881ZM96.7731 13.0848C97.2909 11.4349 98.7003 10.3969 100.681 10.3969C102.662 10.3969 104.076 11.4349 104.59 13.0848H96.7731ZM75.672 7.50233V11.5093C75.2586 11.3894 74.8201 11.3067 74.3487 11.3067C71.9463 11.3067 70.2136 12.9607 70.2136 15.4418V21.5618H66.4921V7.50233H70.2136V11.3067C70.2136 9.20596 72.6573 7.50233 75.672 7.50233Z" fill="#464646"/>
</svg>
