<svg width="257" height="38" viewBox="0 0 257 38" fill="none" xmlns="http://www.w3.org/2000/svg">
<path d="M0.302979 13.2473C0.302979 15.4697 2.10456 17.2712 4.32694 17.2712C6.54928 17.2712 8.35089 15.4697 8.35089 13.2473C8.35089 11.0249 6.54928 9.22339 4.32694 9.22339C2.10456 9.22339 0.302979 11.0249 0.302979 13.2473Z" fill="#464646"/>
<path d="M0.302979 33.367C0.302979 35.5894 2.10456 37.3909 4.32694 37.3909C6.54928 37.3909 8.35089 35.5894 8.35089 33.367C8.35089 31.1446 6.54928 29.343 4.32694 29.343C2.10456 29.343 0.302979 31.1446 0.302979 33.367Z" fill="#464646"/>
<path d="M1.81201 23.3073C1.81201 24.6963 2.93802 25.8223 4.32702 25.8223C5.71603 25.8223 6.84203 24.6963 6.84203 23.3073C6.84203 21.9182 5.71603 20.7922 4.32702 20.7922C2.93802 20.7922 1.81201 21.9182 1.81201 23.3073Z" fill="#464646"/>
<path d="M1.81201 3.18713C1.81201 4.57614 2.93802 5.70214 4.32702 5.70214C5.71603 5.70214 6.84203 4.57614 6.84203 3.18713C6.84203 1.79812 5.71603 0.672119 4.32702 0.672119C2.93802 0.672119 1.81201 1.79812 1.81201 3.18713Z" fill="#464646"/>
<path d="M15.7449 27.0291C15.7449 29.2514 17.5465 31.053 19.7688 31.053C21.9912 31.053 23.7928 29.2514 23.7928 27.0291C23.7928 24.8068 21.9912 23.0051 19.7688 23.0051C17.5465 23.0051 15.7449 24.8068 15.7449 27.0291Z" fill="#464646"/>
<path d="M17.2539 16.9691C17.2539 18.3582 18.38 19.4841 19.7689 19.4841C21.158 19.4841 22.2839 18.3582 22.2839 16.9691C22.2839 15.5802 21.158 14.4541 19.7689 14.4541C18.38 14.4541 17.2539 15.5802 17.2539 16.9691Z" fill="#464646"/>
<path d="M17.2539 6.90955C17.2539 8.29852 18.38 9.42458 19.7689 9.42458C21.158 9.42458 22.2839 8.29852 22.2839 6.90955C22.2839 5.52053 21.158 4.39453 19.7689 4.39453C18.38 4.39453 17.2539 5.52053 17.2539 6.90955Z" fill="#464646"/>
<path d="M31.1868 13.2473C31.1868 15.4697 32.9883 17.2712 35.2107 17.2712C37.4331 17.2712 39.2347 15.4697 39.2347 13.2473C39.2347 11.0249 37.4331 9.22339 35.2107 9.22339C32.9883 9.22339 31.1868 11.0249 31.1868 13.2473Z" fill="#464646"/>
<path d="M32.6965 3.18713C32.6965 4.57614 33.8225 5.70214 35.2115 5.70214C36.6004 5.70214 37.7266 4.57614 37.7266 3.18713C37.7266 1.79812 36.6004 0.672119 35.2115 0.672119C33.8225 0.672119 32.6965 1.79812 32.6965 3.18713Z" fill="#464646"/>
<path d="M32.6965 23.3073C32.6965 24.6963 33.8225 25.8223 35.2115 25.8223C36.6004 25.8223 37.7266 24.6963 37.7266 23.3073C37.7266 21.9182 36.6004 20.7922 35.2115 20.7922C33.8225 20.7922 32.6965 21.9182 32.6965 23.3073Z" fill="#464646"/>
<path d="M32.6965 33.3671C32.6965 34.756 33.8225 35.8821 35.2115 35.8821C36.6004 35.8821 37.7266 34.756 37.7266 33.3671C37.7266 31.978 36.6004 30.8521 35.2115 30.8521C33.8225 30.8521 32.6965 31.978 32.6965 33.3671Z" fill="#464646"/>
<path fill-rule="evenodd" clip-rule="evenodd" d="M115.983 21.3148C115.983 22.5004 115.957 24.2786 115.93 25.6258L113.909 26.0031V26.973H120.16V26.0031L118.301 25.6258C118.274 24.2786 118.247 22.5004 118.247 21.3148V17.5159C119.622 16.2764 120.726 15.7645 122.046 15.7645C123.635 15.7645 124.255 16.5459 124.255 19.0247V21.3148C124.255 22.5542 124.228 24.3055 124.202 25.6528L122.235 26.0031V26.973H128.485V26.0031L126.6 25.6258C126.573 24.2786 126.546 22.5542 126.546 21.3148V18.8091C126.546 15.2795 125.414 13.8245 123.097 13.8245C121.399 13.8245 119.486 14.8485 118.166 16.3303V11.1033L118.274 7.27731L117.896 7.06177L113.774 8.27423V9.2172L115.983 9.48666L115.983 21.3148ZM95.5161 10.8608C96.5126 10.8608 97.3209 10.1333 97.3209 9.13637C97.3209 8.08556 96.5126 7.41198 95.5161 7.41198C94.4919 7.41198 93.7104 8.08556 93.7104 9.13637C93.7104 10.1333 94.4919 10.8608 95.5161 10.8608ZM98.5871 26.003L96.7017 25.6258C96.6739 24.2786 96.647 22.5003 96.647 21.3148V17.7583L96.7277 14.094L96.3235 13.8245L92.1747 15.4681V16.4111L94.3306 16.6536C94.3843 17.7314 94.4112 18.5666 94.4112 20.0485V21.3148C94.4112 22.5003 94.3843 24.2786 94.3565 25.6258L92.3362 26.003V26.9729H98.5871V26.003ZM72.5224 27.1616H71.3639L66.7026 13.1779L62.3111 27.1616H61.1523L56.3024 10.3219L54.0664 10.0525V8.94781H61.395V10.0525L58.916 10.3488L62.2302 22.7429L66.3255 10.3758L63.631 10.0525V8.94781H70.9597V10.0525L68.2385 10.3758L72.2533 22.8507L75.6748 10.4028L73.2231 10.0525V8.94781H79.3391V10.0525L77.076 10.3758L72.5224 27.1616ZM87.8437 17.9738C87.8437 16.4381 86.5772 15.064 84.9069 15.064C83.3981 15.064 81.6468 16.2495 81.3502 19.3749H86.254C87.5472 19.3749 87.8437 18.7552 87.8437 17.9738ZM78.8715 20.6951C78.8715 16.5728 81.7007 13.8245 85.0684 13.8245C87.8704 13.8245 90.0801 15.7375 90.0801 18.9977C90.0801 19.6174 89.9992 20.1563 89.8916 20.5065H81.2965C81.3502 23.8205 83.0747 25.5718 85.6612 25.5718C87.3857 25.5718 88.4365 24.8175 89.4064 23.6859L90.053 24.1977C89.056 26.1108 87.3319 27.3232 84.8799 27.3232C81.2426 27.3232 78.8715 24.8175 78.8715 20.6951ZM108.553 18.1624C108.553 16.2495 107.582 14.9292 105.912 14.9292C104.215 14.9292 103.191 16.3033 103.191 18.2702C103.191 20.237 104.134 21.5843 105.804 21.5843C107.529 21.5843 108.553 20.1563 108.553 18.1624ZM103.083 22.0423C101.79 21.3418 101.008 20.0754 101.008 18.2432C101.008 15.4142 103.083 13.8245 105.885 13.8245C107.26 13.8245 108.445 14.1748 109.307 14.8753L112.351 13.8245L112.756 14.0939V15.7914H110.116C110.52 16.4381 110.735 17.2733 110.735 18.2432C110.735 21.0723 108.66 22.662 105.858 22.662C105.131 22.662 104.458 22.5542 103.864 22.3656C103.406 22.9584 103.191 23.4702 103.191 24.09C103.191 24.8175 103.487 25.2755 104.753 25.2755H108.283C111.247 25.2755 112.621 26.5688 112.621 28.7512C112.621 31.0953 110.384 33.4124 105.967 33.4124C102.06 33.4124 100.389 32.0653 100.389 30.1523C100.389 28.9937 101.035 28.0507 103.029 27.0807C101.844 26.7574 101.251 26.0838 101.251 25.033C101.251 24.1977 101.736 23.2817 103.083 22.0423ZM102.598 29.7212C102.598 31.4725 103.946 32.1731 106.074 32.1731C109.011 32.1731 110.6 30.9606 110.6 29.4517C110.6 28.2662 109.846 27.3501 107.906 27.3501H104.753C104.376 27.3501 104 27.3232 103.649 27.2962C102.895 28.1046 102.598 28.832 102.598 29.7212ZM133.92 15.6029V23.9553C133.92 25.3294 134.485 25.9222 135.401 25.9222C135.994 25.9222 136.533 25.6797 137.207 25.1948L137.854 25.8953C137.153 26.8114 136.048 27.3233 134.674 27.3233C132.788 27.3233 131.603 26.3534 131.603 24.2518C131.603 23.9523 131.609 23.6741 131.614 23.365C131.621 22.9791 131.629 22.5451 131.629 21.9615V15.6029H129.394V14.4174L131.791 14.121L132.491 10.5106H134.108L133.974 14.1749H137.584V15.6029H133.92ZM143.303 27.3232C146.778 27.3232 148.557 25.518 148.557 23.4702C148.557 21.7728 147.532 20.5065 144.838 19.5096L144.002 19.2132C142.171 18.5397 141.524 18.0816 141.524 16.8961C141.524 15.7914 142.386 15.064 144.029 15.064C144.676 15.064 145.296 15.2255 145.889 15.522L146.32 17.6774H147.721L147.829 14.9292C146.67 14.2287 145.511 13.8245 144.057 13.8245C141.039 13.8245 139.369 15.6567 139.369 17.6236C139.369 19.4557 140.662 20.5335 142.629 21.2609L143.868 21.719C145.565 22.3117 146.374 22.9044 146.374 24.063C146.374 25.2755 145.404 26.1108 143.356 26.1108C142.521 26.1108 141.82 25.976 141.173 25.6796L140.662 23.3356H139.179L139.288 26.2994C140.608 26.9729 141.793 27.3232 143.303 27.3232ZM160.653 11.9924C160.653 12.9624 160.869 13.7976 161.866 15.037C162.109 15.3603 162.351 15.6568 162.593 15.9261C164.264 14.7676 165.449 13.582 165.449 12.0194C165.449 10.4566 164.425 9.48666 163.105 9.48666C161.731 9.48666 160.653 10.5644 160.653 11.9924ZM174.044 25.8683L173.937 27.0538C173.128 27.2424 172.59 27.3232 171.889 27.3232C170.46 27.3232 169.625 26.9999 168.736 26.0839C168.578 25.8992 168.42 25.7276 168.265 25.5592L168.264 25.5582C168.102 25.3832 167.944 25.2113 167.794 25.033C166.608 26.3264 164.884 27.3232 162.297 27.3232C158.929 27.3232 156.612 25.1408 156.612 22.4195C156.612 19.9946 157.986 18.1894 160.68 16.8422C160.667 16.8154 160.647 16.7951 160.626 16.775C160.606 16.7547 160.586 16.7345 160.573 16.7075C159.225 15.1717 158.713 13.7976 158.713 12.3696C158.713 9.99862 160.599 8.54362 163.132 8.54362C165.8 8.54362 167.227 9.97164 167.227 11.9924C167.227 13.8515 165.988 15.1717 163.239 16.6536C163.806 17.3002 164.452 18.0277 165.396 19.0515C166.133 19.8636 166.821 20.5998 167.519 21.3469C167.84 21.6903 168.162 22.0362 168.494 22.3926C169.491 20.7221 170.245 18.9708 170.73 16.8422L168.602 16.4919V15.4142H174.071V16.4919L172.023 16.8692C171.404 19.321 170.46 21.3148 169.221 23.1739C169.521 23.4865 169.827 23.8152 170.148 24.1599L170.149 24.1607L170.151 24.1627L170.152 24.1634C170.55 24.5902 170.969 25.0418 171.431 25.5179L174.044 25.8683ZM167.012 24.1708C166.042 23.0662 165.18 22.0962 164.264 21.0724C163.051 19.5905 162.216 18.6205 161.327 17.5967C159.468 18.7283 158.956 20.3449 158.956 21.6921C158.956 23.6589 160.41 25.5989 163.024 25.5989C164.534 25.5989 165.988 25.0869 167.012 24.1708ZM185.282 18.6205C185.282 20.9646 185.282 23.3087 185.229 25.5719L182.75 25.8683V26.973H190.16C195.332 26.973 197.353 24.4942 197.353 22.0423C197.353 19.8599 195.845 18.1086 192.261 17.5967C195.252 16.9769 196.437 15.2526 196.437 13.3396C196.437 10.78 194.309 8.94781 190.564 8.94781H182.75V10.0525L185.229 10.3488C185.282 12.666 185.282 14.9831 185.282 17.3002V18.6205ZM189.325 18.2702C193.043 18.2702 194.66 19.5366 194.66 22.0423C194.66 24.4133 192.989 25.7066 189.54 25.7066H187.896C187.843 23.4164 187.843 21.0993 187.843 18.2702H189.325ZM189.756 10.1872C192.503 10.1872 193.905 11.0763 193.905 13.5282C193.905 15.9801 192.503 17.0309 189.243 17.0309H187.843C187.843 14.9023 187.843 12.5044 187.897 10.1872H189.756ZM204.437 9.13637C204.437 10.1333 203.629 10.8608 202.631 10.8608C201.608 10.8608 200.827 10.1333 200.827 9.13637C200.827 8.08556 201.608 7.41198 202.631 7.41198C203.629 7.41198 204.437 8.08556 204.437 9.13637ZM203.817 25.6258L205.703 26.003V26.9729H199.453V26.003L201.473 25.6258C201.5 24.2786 201.527 22.5003 201.527 21.3148V20.0485C201.527 18.5666 201.5 17.7314 201.446 16.6536L199.291 16.4111V15.4681L203.44 13.8245L203.844 14.094L203.763 17.7583V21.3148C203.763 22.5003 203.79 24.2786 203.817 25.6258ZM217.744 27.2424C218.686 27.2424 219.441 26.8921 220.087 25.8413L219.548 25.2485C219.252 25.5988 218.955 25.8413 218.497 25.8413C217.905 25.8413 217.528 25.4103 217.528 24.2517V18.5127C217.528 15.1178 216.181 13.8245 213.352 13.8245C210.603 13.8245 208.609 15.1178 208.098 17.1656C208.178 17.8661 208.609 18.2702 209.364 18.2702C210.092 18.2702 210.523 17.8122 210.765 16.9769L211.277 15.2255C211.843 15.0909 212.327 15.064 212.731 15.064C214.51 15.064 215.265 15.7106 215.265 18.3241V18.9977C214.187 19.2402 213.055 19.5904 212.22 19.8868C208.582 21.207 207.747 22.4195 207.747 23.9552C207.747 26.1916 209.391 27.3232 211.358 27.3232C212.947 27.3232 213.836 26.6226 215.319 25.1678C215.534 26.4341 216.45 27.2424 217.744 27.2424ZM210.145 23.5512C210.145 22.7428 210.442 21.7189 212.785 20.8029C213.352 20.5873 214.321 20.264 215.265 19.9945V24.1439C213.729 25.2216 213.216 25.545 212.3 25.545C211.061 25.545 210.145 24.9791 210.145 23.5512ZM230.886 23.4702C230.886 25.518 229.108 27.3232 225.632 27.3232C224.123 27.3232 222.937 26.9729 221.617 26.2994L221.51 23.3356H222.992L223.504 25.6796C224.15 25.976 224.85 26.1108 225.686 26.1108C227.733 26.1108 228.703 25.2755 228.703 24.063C228.703 22.9044 227.896 22.3117 226.198 21.719L224.959 21.2609C222.992 20.5335 221.698 19.4557 221.698 17.6236C221.698 15.6567 223.368 13.8245 226.386 13.8245C227.842 13.8245 229 14.2287 230.158 14.9292L230.051 17.6774H228.649L228.219 15.522C227.626 15.2255 227.006 15.064 226.36 15.064C224.716 15.064 223.854 15.7914 223.854 16.8961C223.854 18.0816 224.5 18.5397 226.333 19.2132L227.168 19.5096C229.863 20.5065 230.886 21.7728 230.886 23.4702ZM239.173 15.064C240.844 15.064 242.11 16.4381 242.11 17.9738C242.11 18.7552 241.814 19.3749 240.521 19.3749H235.617C235.913 16.2495 237.665 15.064 239.173 15.064ZM239.335 13.8245C235.967 13.8245 233.138 16.5728 233.138 20.6951C233.138 24.8175 235.509 27.3232 239.146 27.3232C241.598 27.3232 243.323 26.1108 244.319 24.1977L243.673 23.6859C242.703 24.8175 241.652 25.5718 239.927 25.5718C237.341 25.5718 235.617 23.8205 235.563 20.5065H244.158C244.266 20.1563 244.346 19.6174 244.346 18.9977C244.346 15.7375 242.137 13.8245 239.335 13.8245ZM256.303 23.4702C256.303 25.518 254.524 27.3232 251.049 27.3232C249.54 27.3232 248.354 26.9729 247.034 26.2994L246.927 23.3356H248.409L248.921 25.6796C249.567 25.976 250.268 26.1108 251.103 26.1108C253.15 26.1108 254.12 25.2755 254.12 24.063C254.12 22.9044 253.313 22.3117 251.614 21.719L250.375 21.2609C248.409 20.5335 247.115 19.4557 247.115 17.6236C247.115 15.6567 248.785 13.8245 251.804 13.8245C253.258 13.8245 254.417 14.2287 255.575 14.9292L255.468 17.6774H254.066L253.635 15.522C253.043 15.2255 252.423 15.064 251.777 15.064C250.133 15.064 249.27 15.7914 249.27 16.8961C249.27 18.0816 249.917 18.5397 251.749 19.2132L252.585 19.5096C255.28 20.5065 256.303 21.7728 256.303 23.4702Z" fill="#464646"/>
</svg>
